<?xml version="1.0" standalone="no"?>
<!DOCTYPE svg PUBLIC "-//W3C//DTD SVG 20010904//EN"
 "http://www.w3.org/TR/2001/REC-SVG-20010904/DTD/svg10.dtd">
<svg version="1.0" xmlns="http://www.w3.org/2000/svg"
 width="902.000000pt" height="883.000000pt" viewBox="0 0 902.000000 883.000000"
 preserveAspectRatio="xMidYMid meet">

<g transform="translate(0.000000,883.000000) scale(0.100000,-0.100000)"
fill="#000000" stroke="none">
<path d="M6180 8256 c-41 -23 -187 -108 -325 -187 -137 -80 -290 -168 -340
-196 -318 -178 -506 -287 -515 -298 -11 -13 -23 -156 -40 -450 -5 -99 -19
-319 -30 -490 -39 -593 -70 -1081 -80 -1265 -6 -102 -13 -212 -15 -245 -6 -62
-50 -763 -85 -1335 -11 -179 -24 -392 -30 -475 -5 -82 -15 -229 -20 -325 -6
-96 -15 -238 -20 -315 -5 -77 -16 -252 -25 -390 -8 -137 -22 -353 -30 -480 -8
-126 -22 -340 -30 -475 -18 -294 -44 -696 -49 -763 -2 -31 1 -50 9 -53 6 -3
119 40 251 94 278 115 1035 427 1574 649 206 85 422 174 480 198 86 36 437
181 1115 460 623 256 717 297 718 310 0 6 -85 34 -189 63 -104 29 -315 88
-469 131 -154 43 -388 109 -520 146 -132 37 -278 78 -324 91 -103 30 -124 30
-203 1 -106 -40 -729 -277 -798 -304 -97 -38 -194 -73 -204 -73 -5 0 -7 61 -3
147 10 238 46 934 57 1108 5 88 16 309 25 490 8 182 22 452 30 600 8 149 19
367 25 485 6 118 15 301 20 405 6 105 15 285 20 400 6 116 17 352 25 525 9
173 22 457 30 630 12 268 27 532 60 1123 5 84 3 107 -7 107 -7 0 -47 -20 -88
-44z m36 -185 c-37 -739 -49 -972 -66 -1251 -11 -179 -24 -417 -30 -530 -6
-113 -15 -277 -20 -365 -6 -88 -14 -239 -20 -335 -5 -96 -14 -256 -20 -355 -6
-99 -15 -270 -21 -380 -5 -110 -13 -274 -18 -365 -5 -91 -14 -273 -20 -405 -7
-132 -16 -319 -22 -415 -15 -283 -28 -520 -39 -760 -6 -124 -15 -290 -20 -370
-13 -204 -14 -340 -3 -351 8 -8 242 73 348 120 11 5 88 34 170 65 83 32 258
98 389 147 174 66 247 90 270 86 33 -5 51 -10 281 -81 83 -26 179 -55 215 -66
36 -11 142 -42 235 -71 94 -28 190 -57 215 -64 90 -26 217 -65 319 -97 80 -26
100 -36 90 -44 -8 -6 -90 -42 -184 -79 -93 -37 -188 -76 -210 -85 -22 -10
-110 -46 -195 -80 -85 -35 -168 -69 -185 -76 -43 -19 -311 -129 -625 -257
-102 -42 -241 -99 -310 -128 -69 -28 -161 -66 -205 -84 -104 -42 -324 -133
-350 -145 -26 -12 -105 -44 -475 -195 -91 -37 -178 -73 -195 -81 -16 -7 -70
-29 -119 -49 -48 -19 -114 -46 -145 -59 -31 -14 -146 -62 -256 -106 -110 -45
-213 -88 -230 -96 -43 -19 -135 -54 -142 -54 -3 0 -3 46 0 102 9 151 35 541
52 793 8 121 22 337 30 480 22 382 34 574 45 720 6 72 17 243 25 380 23 402
44 734 60 970 9 121 20 299 25 395 5 96 18 306 29 465 11 160 27 416 36 570 8
154 19 334 25 400 5 66 12 163 15 215 3 52 12 201 20 330 8 129 22 350 30 490
8 140 20 337 27 438 l11 183 31 16 c17 9 42 24 56 34 120 83 1060 620 1073
612 6 -3 7 -53 3 -132z"/>
<path d="M5648 7713 c-26 -7 -22 -23 4 -18 26 5 50 26 28 24 -8 -1 -23 -3 -32
-6z"/>
<path d="M5590 7681 c0 -6 -8 -11 -17 -12 -10 0 -37 -10 -60 -22 -200 -105
-320 -170 -329 -180 -11 -12 -33 -259 -54 -602 -6 -93 -17 -267 -25 -385 -8
-118 -20 -291 -25 -385 -5 -93 -14 -240 -20 -325 -5 -85 -16 -267 -25 -405 -8
-137 -19 -317 -25 -400 -5 -82 -16 -258 -25 -390 -8 -132 -20 -307 -25 -390
-6 -82 -15 -226 -20 -320 -11 -195 -46 -733 -61 -940 -5 -77 -16 -257 -24
-400 -8 -143 -19 -327 -25 -410 -9 -126 -54 -843 -77 -1218 -4 -74 -3 -107 5
-107 6 0 53 18 104 40 81 34 387 160 813 335 72 29 236 97 365 150 129 54 289
120 355 147 66 27 152 62 190 78 39 16 113 47 165 68 52 21 156 64 230 95 74
30 230 94 345 142 327 134 374 154 470 195 50 21 147 62 218 91 70 29 127 56
127 61 0 4 -2 8 -5 8 -5 0 -206 56 -395 110 -36 11 -123 35 -195 55 -157 44
-198 55 -338 96 -60 17 -120 29 -135 26 -25 -4 -340 -122 -547 -204 -49 -19
-124 -48 -165 -63 -41 -15 -183 -68 -315 -119 -132 -50 -245 -89 -253 -86 -14
5 -15 -14 18 625 19 354 37 717 60 1175 5 110 14 277 19 370 6 94 13 233 16
310 4 77 13 244 20 370 8 127 19 358 25 515 6 157 15 346 20 420 5 74 14 270
20 435 6 165 15 397 21 515 14 310 15 393 1 398 -6 2 -8 10 -5 19 4 11 1 14
-13 11 -31 -6 -52 22 -51 70 0 33 -6 48 -27 67 -14 13 -26 30 -26 37 0 8 -18
32 -40 53 -22 21 -40 47 -40 56 0 9 -7 19 -15 23 -8 3 -15 12 -15 20 0 23 -39
94 -56 100 -8 3 -19 17 -24 31 -7 18 -17 25 -38 25 -15 0 -38 7 -50 16 -12 8
-22 10 -22 5z m120 -170 c0 -5 3 -17 7 -27 4 -11 3 -15 -4 -11 -14 9 -24 47
-12 47 5 0 9 -4 9 -9z"/>
<path d="M2907 7498 c-10 -762 -9 -1096 3 -1103 5 -3 103 -10 217 -15 115 -6
300 -14 413 -19 606 -29 781 -34 790 -25 10 10 34 399 60 935 5 118 12 241 15
274 2 33 1 65 -3 71 -6 10 -222 71 -1072 305 -118 32 -256 70 -305 84 -50 14
-96 25 -101 25 -7 0 -13 -173 -17 -532z m463 341 c201 -55 408 -112 460 -126
52 -14 115 -31 140 -38 25 -8 70 -20 100 -28 30 -8 91 -25 135 -37 44 -13 91
-25 104 -28 l24 -5 -7 -220 c-3 -121 -11 -272 -16 -336 -5 -64 -14 -222 -19
-351 -6 -130 -13 -244 -17 -254 -8 -21 8 -21 -540 4 -110 5 -321 14 -470 20
-148 6 -275 13 -281 15 -25 9 -14 1485 11 1485 6 0 175 -45 376 -101z"/>
<path d="M3076 7804 c-10 -27 -7 -1242 4 -1249 9 -5 353 -24 854 -45 132 -6
243 -7 247 -3 4 5 15 150 24 323 9 173 20 383 25 465 13 212 14 201 -17 213
-16 6 -136 40 -268 77 -132 36 -319 88 -415 115 -280 78 -437 120 -442 120 -3
0 -9 -7 -12 -16z"/>
<path d="M2360 7661 c-131 -102 -559 -430 -730 -560 -91 -69 -372 -283 -625
-476 -253 -193 -530 -404 -617 -469 -86 -64 -158 -123 -160 -129 -3 -7 -1 -50
3 -97 3 -47 12 -148 18 -225 6 -77 15 -187 21 -245 29 -300 40 -428 40 -476 0
-29 5 -56 13 -61 8 -6 71 -5 177 3 213 16 408 33 440 39 14 3 135 14 270 25
135 11 292 24 350 30 58 6 242 22 410 35 168 14 379 31 470 39 458 40 571 48
576 44 5 -5 -29 -421 -46 -563 -6 -44 -14 -138 -20 -210 -5 -71 -17 -200 -25
-285 -8 -85 -22 -229 -30 -320 -8 -91 -19 -212 -25 -270 -6 -58 -17 -186 -25
-285 -8 -99 -17 -193 -20 -210 -3 -16 -14 -142 -25 -280 -11 -137 -24 -288
-30 -335 -6 -47 -22 -211 -36 -365 -14 -154 -31 -347 -39 -430 -7 -82 -21
-224 -30 -315 -9 -91 -27 -284 -40 -430 -14 -146 -29 -308 -34 -360 -5 -53 -5
-99 -1 -104 9 -9 363 19 815 64 105 10 309 29 454 42 244 21 264 24 271 43 4
11 10 83 14 160 4 77 11 205 16 285 5 80 16 262 25 405 25 433 54 925 70 1195
8 140 22 365 30 500 58 972 124 2108 131 2267 l7 151 -262 269 c-145 147 -269
272 -278 276 -15 9 -134 1 -1308 -88 -115 -9 -232 -17 -260 -18 l-50 -2 1 65
c0 63 8 134 58 580 42 370 126 1130 126 1143 0 14 -16 5 -90 -52z m-30 -158
c0 -15 -30 -309 -45 -453 -9 -80 -20 -194 -26 -255 -10 -109 -38 -373 -81
-757 -12 -109 -19 -201 -15 -204 4 -4 118 0 255 10 337 23 832 57 917 62 39 2
165 11 282 20 118 9 219 12 227 7 8 -5 120 -116 248 -247 l232 -238 -2 -77
c-1 -42 -7 -146 -13 -231 -5 -85 -14 -234 -19 -330 -19 -361 -49 -877 -54
-925 -3 -27 -11 -140 -16 -250 -9 -181 -18 -335 -50 -875 -6 -96 -17 -290 -25
-430 -8 -140 -19 -331 -25 -425 -13 -213 -35 -588 -56 -990 -9 -171 -19 -313
-23 -317 -10 -10 -487 -56 -1231 -117 -58 -5 -109 -7 -113 -4 -9 5 -4 96 18
313 8 80 24 253 36 385 11 132 25 290 30 350 22 253 70 788 79 885 6 58 19
197 30 310 11 113 26 275 34 360 8 85 20 207 26 270 5 63 21 232 35 375 37
383 53 559 70 760 16 192 40 435 55 575 6 47 10 107 10 134 l0 49 -97 -7 c-54
-3 -138 -11 -188 -16 -49 -6 -245 -24 -435 -41 -190 -16 -460 -41 -600 -55
-603 -58 -924 -85 -1317 -111 l-82 -5 -5 33 c-6 43 -10 87 -41 449 -14 162
-29 339 -35 394 -5 54 -6 104 -2 111 10 18 236 193 682 527 217 163 538 403
712 535 632 475 618 465 618 446z"/>
<path d="M2094 7172 c-38 -31 -85 -68 -104 -82 -18 -14 -75 -60 -126 -102 -51
-43 -96 -78 -100 -78 -4 0 -28 -17 -53 -37 -25 -21 -52 -42 -59 -48 -8 -5 -30
-25 -50 -42 -19 -18 -40 -33 -45 -33 -6 0 -36 -19 -66 -43 -31 -24 -68 -51
-83 -60 -16 -10 -28 -24 -28 -32 0 -8 -8 -15 -18 -15 -10 0 -37 -18 -61 -40
-23 -22 -47 -40 -52 -40 -5 0 -9 -9 -9 -20 0 -11 -4 -20 -9 -20 -15 0 -65 -84
-52 -88 6 -2 11 -19 11 -39 0 -26 5 -36 20 -40 31 -8 43 -64 36 -160 -6 -70
-4 -88 11 -113 9 -17 21 -30 25 -30 4 0 8 -12 8 -26 0 -17 6 -28 20 -31 17 -5
20 -14 20 -59 0 -30 4 -54 9 -54 4 0 4 -23 -1 -51 -11 -58 6 -116 29 -98 6 6
10 16 7 24 -10 25 13 24 24 0 7 -14 16 -25 21 -25 6 0 8 -7 5 -15 -4 -8 0 -22
7 -31 11 -14 11 -18 -3 -28 -16 -12 -30 -104 -16 -108 4 -2 9 -14 10 -28 2
-19 -1 -24 -14 -22 -19 3 -22 -6 -12 -32 8 -20 24 -21 24 -1 0 19 14 19 31 -1
10 -13 10 -17 -2 -25 -8 -5 -9 -9 -2 -9 16 0 21 -31 9 -52 -7 -11 -5 -24 8
-43 17 -26 17 -27 -1 -41 -16 -12 -5 -14 87 -11 58 3 173 9 255 15 83 6 195
14 250 17 55 3 168 12 250 20 142 14 420 34 784 56 102 7 167 7 173 1 6 -6 5
-47 -1 -108 -6 -55 -20 -202 -31 -329 -11 -126 -29 -327 -41 -445 -11 -118
-25 -267 -29 -330 -5 -63 -14 -153 -19 -200 -6 -47 -15 -146 -21 -220 -6 -74
-17 -200 -25 -280 -17 -173 -36 -381 -70 -780 -14 -162 -30 -347 -35 -410 -6
-63 -17 -196 -25 -295 -8 -99 -19 -199 -25 -222 -5 -23 -10 -63 -10 -90 0 -42
-43 -490 -69 -718 -15 -131 -24 -315 -14 -315 4 0 130 11 278 25 362 33 462
42 645 55 85 6 156 13 159 15 2 2 7 84 12 182 4 98 15 282 24 408 23 348 75
1200 95 1582 5 103 14 256 20 338 6 83 17 274 25 425 9 151 20 336 25 410 6
74 15 223 20 330 5 107 21 379 34 604 l25 409 -29 36 c-16 20 -109 116 -207
213 l-178 178 -250 -20 c-530 -41 -761 -60 -790 -65 -16 -3 -124 -12 -240 -20
-115 -8 -253 -20 -305 -25 -52 -5 -122 -10 -154 -10 l-59 0 7 68 c4 37 11 114
16 172 5 58 13 125 18 150 6 25 13 83 17 130 3 47 11 118 16 158 6 40 17 128
24 195 13 118 23 198 65 509 23 166 23 168 13 167 -5 0 -40 -26 -79 -57z
m-771 -1149 c-7 -2 -21 -2 -30 0 -10 3 -4 5 12 5 17 0 24 -2 18 -5z m173 -713
c8 0 14 -5 14 -11 0 -19 -35 -4 -37 16 -2 11 0 14 3 8 3 -7 12 -13 20 -13z"/>
<path d="M1300 5856 c0 -9 5 -16 10 -16 6 0 10 4 10 9 0 6 -4 13 -10 16 -5 3
-10 -1 -10 -9z"/>
<path d="M494 5839 c-14 -24 3 -520 22 -641 l6 -38 56 0 c32 0 114 7 185 17
l127 17 0 38 c0 31 -4 38 -19 38 -26 0 -81 68 -81 101 0 24 -14 47 -58 94 -11
11 -25 35 -33 53 -8 17 -16 32 -19 32 -4 0 -17 22 -31 50 -13 27 -27 50 -31
50 -5 0 -8 8 -8 18 0 9 -10 28 -22 42 -13 14 -36 51 -52 83 -31 62 -31 62 -42
46z"/>
<path d="M7316 6963 c-3 -10 -10 -142 -16 -293 -6 -151 -17 -408 -25 -570 -8
-162 -24 -486 -35 -720 -12 -234 -27 -555 -35 -715 -7 -159 -19 -393 -24 -520
-6 -126 -16 -309 -21 -405 -5 -96 -17 -326 -26 -510 -18 -384 -28 -343 90
-383 39 -14 143 -50 231 -82 389 -138 509 -180 650 -230 83 -29 246 -87 364
-129 131 -47 218 -73 223 -68 6 6 2 179 -11 443 -11 239 -23 495 -26 569 -3
74 -14 329 -25 565 -11 237 -24 547 -30 690 -6 143 -17 411 -25 595 -8 184
-19 450 -25 590 -25 622 -39 853 -52 862 -7 4 -24 11 -38 14 -14 4 -117 33
-230 65 -359 102 -891 249 -900 249 -5 0 -11 -8 -14 -17z m358 -144 c154 -44
373 -107 486 -139 113 -32 223 -64 245 -72 l40 -13 11 -240 c6 -132 17 -359
23 -505 7 -146 21 -438 32 -650 11 -212 26 -538 34 -725 8 -187 21 -486 30
-665 47 -1020 60 -1390 49 -1390 -9 0 -76 24 -654 231 -168 61 -388 139 -490
175 -211 75 -260 94 -278 107 -10 8 -11 37 -7 126 3 64 10 215 15 336 5 121
14 328 20 460 29 654 52 1174 60 1395 6 135 21 466 35 735 14 270 29 581 35
693 9 191 13 222 27 222 3 0 132 -36 287 -81z"/>
<path d="M7487 6623 c-4 -65 -9 -210 -12 -323 -3 -113 -12 -311 -20 -440 -8
-129 -17 -327 -19 -440 -6 -231 -41 -913 -56 -1065 -5 -55 -12 -174 -15 -265
-3 -91 -12 -275 -20 -410 -32 -526 -36 -653 -23 -666 12 -10 58 -27 448 -164
91 -32 244 -86 340 -120 299 -105 381 -132 386 -127 5 4 -2 172 -35 902 -11
237 -25 556 -31 710 -6 154 -17 422 -25 595 -8 173 -19 452 -25 620 -6 168
-15 379 -20 470 -5 91 -13 263 -16 383 -7 209 -8 219 -28 228 -20 9 -200 61
-341 99 -38 10 -101 27 -140 38 -38 11 -124 33 -190 51 -66 17 -127 34 -136
37 -14 4 -17 -12 -22 -113z"/>
<path d="M1610 4264 c-96 -7 -371 -25 -610 -39 -337 -21 -437 -30 -446 -41 -6
-7 -14 -76 -17 -151 -4 -76 -14 -248 -22 -383 -21 -332 -43 -702 -60 -1015 -9
-143 -22 -366 -29 -495 -8 -129 -12 -239 -8 -245 3 -5 85 -113 182 -240 97
-126 244 -318 326 -425 468 -611 675 -878 688 -889 10 -9 59 -8 209 2 107 8
200 18 206 21 7 5 9 33 6 79 -3 40 -12 207 -20 372 -9 165 -20 381 -26 480 -5
99 -14 263 -19 365 -6 102 -14 271 -20 375 -5 105 -14 278 -20 386 -21 412
-50 940 -60 1094 -6 88 -15 259 -21 380 -16 344 -20 380 -44 381 -11 1 -99 -4
-195 -12z m172 -99 c3 -27 16 -264 27 -525 12 -261 28 -608 36 -770 37 -729
77 -1528 95 -1905 11 -226 22 -438 26 -472 5 -48 3 -64 -7 -68 -24 -8 -297
-25 -311 -19 -7 3 -65 74 -128 157 -63 83 -191 251 -284 372 -94 121 -199 258
-235 305 -36 47 -94 123 -130 170 -37 47 -83 108 -104 135 -21 28 -90 118
-153 200 -64 83 -120 158 -125 167 -6 11 -6 83 1 190 5 95 17 290 25 433 8
143 20 341 25 440 5 99 14 257 19 350 6 94 13 226 16 295 8 186 26 472 31 496
3 20 13 22 176 33 95 7 295 21 443 33 423 32 478 36 515 34 34 -1 35 -2 42
-51z"/>
<path d="M1170 4050 c-255 -15 -435 -33 -442 -44 -4 -6 -8 -49 -8 -96 -1 -47
-5 -119 -10 -160 -5 -41 -12 -149 -15 -240 -3 -91 -12 -255 -21 -365 -8 -110
-26 -391 -39 -625 -14 -234 -27 -456 -29 -493 l-5 -68 123 -162 c135 -178 516
-674 596 -777 28 -36 109 -141 180 -235 72 -93 147 -192 168 -218 l37 -49 65
7 c35 3 66 8 68 10 5 5 -15 514 -28 700 -6 77 -14 232 -20 345 -6 113 -14 275
-20 360 -11 191 -25 451 -46 850 -26 525 -60 1054 -75 1165 -6 53 -16 84 -26
93 -19 13 -231 14 -453 2z"/>
</g>
</svg>
